<svg id="Rabelo" xmlns="http://www.w3.org/2000/svg" viewBox="0 0 512 521"><style>.st0{fill:#683c11}.st1{fill:#f39200}.st2{fill:#e6007e}.st3{fill:#fff}.st4{fill:#be1622}.st5{fill:#7d4e24}.st6{fill:#ac8a6a}.st7{fill:#9b9897}.st8{fill:#73706e}.st9{fill:#ffe57f}.st10{fill:#ffd500}</style><path class="st0" d="M334.7 280.4c7.7-.8 15.4-.4 22.5.9 4.7-12.6 7.3-27.2 7.3-42.4 0-17.9-4.1-36.8-12.6-52-15.8-13.2-29.3-21.6-46.9-25.3-2.9-.6-5.9-.9-9-1.1-4.7 2-9.4 5-13.8 9-8.1 7.2-26.8 28.3-26.8 68.9 0 26.5 6.8 48.7 19.5 64.1 2.3 2.8 4.8 5.3 7.4 7.5 12.2-16.8 30.7-27.5 52.4-29.6z"/><path class="st1" d="M412.1 42c9.2 0 18.4 0 27-.1 7.6 0 14.7-.1 20.9-.1 11.7 0 19.1.1 21.9.4 0 1.1-.4 3.6-2.3 7.3-5 10-17.8 22.9-38.6 29.1-4.4 1.3-9 2-13.9 2-13.5 0-35.8-5.3-65.4-30.5l-1.1-.9c-4.4-3.6-7.1-6.8-8.2-8.6.7-.1 1.9-.1 3.2 0 15.2 1.2 39.5 1.4 56.5 1.4m-48.3 339.2c-8.5 5.1-16.9 9.1-24.9 12.3-26.3 48.1-83.4 85-132.9 85.9-25.6.4-45.4-9.2-56.2-27.3-12.1-20.3-30.5-27.8-42.5-24.7-8 2.1-12.7 8.8-13 18.9-.3 8.9 7.5 20.7 21 31.7 24.1 19.7 65.5 35.5 103.5 26.5 65.8-15.7 124.9-66.5 145-123.3M98.6 109.6c-.4.1-.5.2-.5.2s.3.5 1.2 1.1c1.7 1.2 8.8 4.4 27.8-.6-.6-4.4-.4-9.9 1.6-16.5-11.2 7.7-23.7 14.4-30.1 15.8"/><circle class="st2" cx="297.4" cy="73.6" r="16.5"/><path class="st3" d="M358.5 242.1c0-8.7-1.2-16.9-3.4-24.5-2.2-7.6-5.4-14.5-9.4-20.3-4-5.9-8.8-10.7-14.1-14.1-5.4-3.5-11.3-5.5-17.6-5.8-6.3-.3-12.4 1.3-18 4.4-5.6 3.1-10.7 7.8-15 13.6-4.3 5.9-7.9 12.9-10.3 20.8-2.5 7.9-3.8 16.7-3.8 25.9s1.4 17.9 3.8 25.9c2.4 7.9 6 15 10.3 20.8 3.1 4.2 6.7 7.8 10.5 10.7 3.9-3.6 8.2-6.8 12.8-9.5l10.4-42.8 9 35c3.5-.9 7.2-1.5 10.9-1.9.9-.1 1.7-.2 2.5-.2l9.4-39.1c.6-2 1-4 1.4-5.8.4-1.8.7-3.6.9-5.3.2-1.7.4-3.3.5-4.8.1-1.5.2-3 .2-4.5v-1.5-1.5c0-.5 0-1-.1-1.4 0-.5-.1-.9-.1-1.4.8 2 1.4 4.1 2 6.3.6 2.2 1.1 4.4 1.5 6.7.4 2.3.7 4.6.9 7 .2 2.4.3 4.8.3 7.3 0 5.2-.5 10.3-1.4 15.1-.9 4.8-2.3 9.4-4 13.6-1.3 3.2-2.8 6.3-4.5 9.1 1.8 0 3.7.1 5.5.3 2.2-4.2 4-8.7 5.4-13.6 2.3-7.5 3.5-15.8 3.5-24.5zm-72.3 44.3c-2.9-3.5-5.5-7.7-7.6-12.2-2.1-4.6-3.8-9.6-5-15-1.2-5.4-1.8-11.1-1.8-17 0-2.2.1-4.3.2-6.4.2-2.1.4-4.2.7-6.2.3-2 .7-4 1.2-6 .5-1.9 1-3.8 1.6-5.7l20.3 77.3c-3.4-2.3-6.7-5.3-9.6-8.8zm48.3-73c.2 1.1.5 2.2.9 3.3.4 1.1.8 2.2 1.3 3.3.5 1.1 1 2.3 1.5 3.5.4 1 .8 2 1.2 3.1.4 1.1.7 2.3 1.1 3.6.3 1.3.6 2.7.8 4.2.2 1.5.3 3.1.3 4.9 0 1.2-.1 2.5-.2 3.8-.1 1.3-.4 2.8-.6 4.3-.3 1.5-.6 3.1-1 4.8-.4 1.7-.8 3.6-1.2 5.6l-4 19.2-14.6-62c.6 0 1.2-.1 1.8-.1.6-.1 1.1-.1 1.5-.2.4 0 .8-.1 1-.1.2 0 .4-.1.4-.1.5-.1.9-.4 1.2-.9.2-.5.4-1 .3-1.6 0-.6-.2-1.1-.5-1.6-.3-.4-.7-.7-1.2-.7 0 0-.4 0-1.1.1-.7.1-1.6.1-2.7.2s-2.3.1-3.5.2c-1.2 0-2.4.1-3.5 0-1 0-2.2-.1-3.4-.2-1.2-.1-2.5-.2-3.6-.3-1.1-.1-2.1-.2-2.8-.3-.7-.1-1.1-.1-1.1-.1-.5 0-.9.3-1.2.7-.3.4-.4 1-.5 1.6 0 .6.1 1.2.4 1.7.3.5.7.8 1.2.9 0 0 .1 0 .4.1.2 0 .6.1 1 .2s.9.1 1.4.2c.5.1 1.1.1 1.6.2l6.4 25-9.1 38.4-15.3-63.7c.6 0 1.3-.1 1.8-.1.6-.1 1.1-.1 1.5-.2.4-.1.8-.1 1.1-.1.3 0 .4-.1.4-.1.6-.1 1-.4 1.2-.9.3-.5.4-1.1.4-1.6s-.2-1.2-.5-1.6c-.3-.4-.7-.7-1.2-.7 0 0-.4 0-1.1.1-.7.1-1.7.1-2.8.2-1.1.1-2.4.1-3.7.2-1.3 0-2.5.1-3.7 0H279.8c1.9-4 4.2-7.6 6.7-10.8 2.5-3.2 5.3-5.9 8.4-8.2 3-2.2 6.2-3.9 9.6-5 3.4-1.1 6.9-1.6 10.5-1.5 2.7.1 5.3.6 7.8 1.3 2.5.8 4.9 1.9 7.2 3.3s4.5 3 6.5 5c2 1.9 4 4.1 5.7 6.5h-.1-.1-.1-.1c-1 0-1.9.3-2.7.8-.8.5-1.5 1.3-2.1 2.2-.6.9-1.1 2-1.4 3.2-.3 1.2-.5 2.5-.5 3.8-.9.7-.8 1.9-.6 3z"/><path class="st4" d="M102.4 148c-8.3 8.6-8.4 17.5-8.5 26.2-.1 4.1-.1 8.3-1.1 12.2 3.9-1.1 8.1-1.4 12.2-1.6 8.7-.4 17.6-.9 25.9-9.5 10.6-10.9 19-22.4 24.4-30.3h-50c-1 1-2 2-2.9 3z"/><path class="st5" d="M174.6 352.2c13.3-.6 26.4-2.8 38.6-5.8.8 3.4 1.5 6.6 1.9 9.8v.1c-1.4 0-2.8.1-4.2.1-13-.1-25.2-1.7-36.3-4.2zm37.6-227.3c.2-.2.4-.4.6-.5h-2c-13 0-25.1 1.5-36.4 4.1 10.4.5 20.7 1.9 30.5 4 2-2.4 4.4-4.9 7.3-7.6zm-87.7 183c-10.1 0-18.8-1.1-26.4-2.8 3.1 4.9 6.2 10.2 9.2 15.4 2.8 2.1 5.9 4.3 9.1 6.5 4.4 2.9 9.4 6 15 9 11.2 3.9 23.1 6.5 35.3 6.5 15.1 0 30.1-2.4 44.1-5.8-2.9-12.1-5.6-24.8-3.7-36-23 3.8-51.9 7.2-82.6 7.2zM271 166.7l-5.4-2.7c-3.3.7-6.6 1.4-9.8 2.1-12.1 2.7-22.6 5-30.7 4.2-12.5-1.3-22.4-7.9-25.3-16.8-1-3.1-1.3-7.1.2-11.8-9.3-1.8-19-3-28.7-3.3l-.8 1.3c-.4.8-9.5 16.5-24.4 33.7 52.3 2.6 96.3 13.6 109.2 17.1 4-9.1 9.3-17.1 15.7-23.8zm-19.4 33c-14.4-3.9-60.6-15.1-114.3-16.8-10.8 10.8-22.5 11.4-31.9 11.9-.4 0-.9 0-1.3.1.9 8-2.1 16.3-8.4 22.5-5.9 5.9-13.4 9.3-20.5 9.3-3.2 0-6.1-.7-8.6-2-1.7 2.4-3 4.4-3.9 6.1-.2 1.8-.4 3.7-.5 5.5h183.2c.1-13.7 2.2-24.8 6.2-36.6zm-5.9 46.6H65.4c2.2 3.3 4.5 7.2 1.2 10.6-.8.9-1.8 1.4-2.8 1.6 1.5 7.2 3.7 13.6 6.2 19 3.9 1.4 7.6 3.5 11.2 6.3 2.3 1.8 4.9 4.6 7.7 8.1 8.9 3.6 20.5 6.1 35.6 6.1 32.4 0 62.8-3.9 86.2-8 2.3-4.3 5.7-8.1 10.6-11.3 4-2.7 8.4-4 13-4 6.1 0 12 2.4 17.5 6.2-3.4-10.5-5.5-22.1-6.1-34.6z"/><path class="st4" d="M102.4 148c-8.3 8.6-8.4 17.5-8.5 26.2-.1 4.1-.1 8.3-1.1 12.2 3.9-1.1 8.1-1.4 12.2-1.6 8.7-.4 17.6-.9 25.9-9.5 10.6-10.9 19-22.4 24.4-30.3h-50c-1 1-2 2-2.9 3z"/><path class="st6" d="M159.6 138.5c-9.5.8-18.8 3-27.7 6-.3.2-.7.4-1 .5h24.4c2-3 3.7-5.5 4.8-7.3-.2.3-.4.6-.5.8z"/><path class="st7" d="M148.4 126.1c.4.4.9.8 1.3 1.3-.4-.5-.8-.9-1.3-1.3z"/><path class="st8" d="M152.4 129.9l-.3-.3-2.3-2.3-1.3-1.3c-.6-.5-1.1-1.1-1.7-1.6-.4-.1-.7-.1-1-.2-2.2-1-5-3.2-7.2-6.5-1.8 1.2-4.1 2.9-7 4.9 2.1 3.2 4.7 5.7 7.2 7.4-10.6 4.8-19.8 10-27.3 15h19.4c.3-.2.7-.4 1-.5 8.9-3.1 18.2-5.3 27.7-6 .2-.2.3-.5.5-.7-1.9-2-4.7-4.8-7.7-7.9z"/><path d="M135.4 107.9zM150.1 124.4zM191.4 74.2c3.8-2.8 9.5-4.7 18-5.7 8.5-.9 7.6 8.5 0 14.2-7 5.2-7.6 4.7-15.2 3.8-7.6-.9-9.6-7.2-2.8-12.3M171.5 78c0-4.7-3.8-8.5-8.5-8.5s-8.5 3.8-8.5 8.5 3.8 8.5 8.5 8.5 8.5-3.8 8.5-8.5M270 54.3c0-4.7-3.8-8.5-8.5-8.5s-8.5 3.8-8.5 8.5 3.8 8.5 8.5 8.5c4.6 0 8.5-3.8 8.5-8.5m220.4-12.4c.2 10.3-13.7 34.9-46.9 44.9-5.2 1.6-10.7 2.3-16.3 2.3-6.3 0-14.3-1-23.8-4.2 4.7 8.9 9 18.4 12.6 28.6 10.2 28.8 18.5 81.8 14 135.2-3.5 41.9-16 97.3-55 125.3-17.4 63.5-81.9 121.7-154.2 138.8-8.1 1.9-16.4 2.8-24.6 2.8-33.1 0-65.6-14.2-86.2-31-15.7-12.8-24.5-26.8-24.1-38.5.5-14 7.5-23.8 19.4-26.9 15.1-3.9 37.8 4.7 52 28.6 11.7 19.7 33 23.5 48.7 23.2 43.8-.8 93.9-31.6 120.5-73-17.8 5.4-33.3 6.8-44.3 6.8-1.7 0-3.3 0-4.8-.1-6.6 9.9-17.7 18.8-34.7 18.8-8.3 0-14.7-2.4-19.2-7-2.9-3-4.7-6.6-5.9-10.7l-2.5-.2c-18.2-1.4-35.9-5.9-52.5-13.2-12.4-5.5-24-12.5-34.6-21-.1 3.9-.9 7.7-3 10.9-2 3-5.9 6.6-13.3 6.6-2.2 0-4.6-.3-7.2-.9-29.1-7.1-68.5-50.4-73.5-74.5-2.2-10.8-.2-20.7 5.8-28 5.3-6.5 13.2-10.1 21.8-10.1h-.1c-2.3-6.2-4.3-13.2-5.3-21-.9-.7-1.8-1.4-2.6-2C46.3 249 39 242.2 39 242.2c-2.7-2.6-7.1-7.1-10.7-11.3-3.8-4.5-9.6-11.3-5-15.9 3.5-3.7 7.9-.9 11.4 1.3 2.1 1.3 4.7 3 7.2 3.8 1 .3 4.9.7 14.3-6.8.3-1.1.6-2.2 1-3.3-.6-5.8 1.6-12.1 6.4-17.8.9-1 1.8-2.1 2.8-3 4.2-7.2 7.9-11.5 8.6-12.3.6-.7 3.8-4.5 9.3-9.9.6-8.1 2.7-17.1 11.1-25.8 7.7-7.9 15.5-14.7 22.3-20.2-3.1.4-5.8.6-8.3.6-9.6 0-14.5-2.9-16.8-5.3-2.5-2.6-3.5-5.9-2.6-9 .9-3 3.4-5.3 6.8-6 7.3-1.6 29-14 40.2-25.1 29.3-46.1 83.6-72.5 145.4-70.6 29 .9 55.1 10.2 77.2 26.7 14.9 1 36.9 1.1 52.5 1.1 9.2 0 18.3 0 26.9-.1 7.6 0 14.7-.1 21-.1 18 0 22.9.3 25 .8 3.3.9 5.3 3.9 5.4 7.9zm-436.7 185c-4.6 2.5-8.9 3.7-12.9 3.1 1.6 1.7 3.3 3.4 5 5 1.7 1.7 3.5 3.3 5.3 4.9-.8-4 .2-8.4 2.6-13zm73.4-116.6c-.6-4.4-.4-9.9 1.6-16.5-11.1 7.7-23.7 14.4-30.1 15.8-.4.1-.5.2-.5.2s.3.5 1.2 1.1c1.7 1.2 8.7 4.5 27.8-.6zm-34.4 76.1c3.9-1.1 8.1-1.4 12.2-1.6 8.7-.4 17.6-.9 25.9-9.5 14.5-15.1 25.1-31.1 29.2-37.6-2.4-2.5-6.2-6.4-10.3-10.4-4.1-4-8.2-7.6-10.8-9.9-6.4 4.3-22.1 15.5-36.6 30.5-8.3 8.6-8.4 17.5-8.5 26.2 0 4.2-.1 8.4-1.1 12.3zm53.4-13.1c52.3 2.6 96.3 13.6 109.2 17.1 4.1-9 9.4-17 15.7-23.7l-5.4-2.7c-3.3.7-6.6 1.4-9.8 2.1-12.1 2.7-22.6 5-30.7 4.2-12.5-1.3-22.4-7.9-25.3-16.8-1-3.1-1.3-7.1.2-11.8-9.3-1.8-19-3-28.7-3.3l-.8 1.3c-.4.7-9.5 16.4-24.4 33.6zm19.3-44.3zm9.1-.5c10.4.5 20.7 1.9 30.5 4 1.9-2.4 4.2-4.9 7.2-7.5.2-.2.4-.4.6-.5h-2c-12.9-.1-25 1.4-36.3 4zm52-13.4c2-1.1 4-2.1 6-3-11 0-21.8-2.1-32.2-7.6-2.9 4.1-6.9 7.9-11.3 11.3 7-.9 14.3-1.4 21.9-1.4 5.3.1 10.5.3 15.6.7zm-161 93v.8c0 .3.1.6.1.8.1.4.2.8.3 1.1 0 .1.1.2.1.3.1.3.2.5.2.8 0 .1.1.2.1.3.1.3.2.6.4.9 0 .1.1.1.1.2l.3.6c.1.1.1.2.2.3.1.2.2.3.3.5 0 .1.1.1.1.2.2.2.3.4.5.6.1.1.1.2.2.2l.3.3c.1.1.2.2.3.2.1.1.2.2.3.2.2.1.4.3.5.4.1 0 .2.1.2.1.1.1.3.1.4.2.1 0 .1.1.2.1l1.5.6c1 .3 2.1.4 3.1.4 4.8 0 10.2-2.6 14.5-6.8 4.4-4.4 6.6-10.1 6-15.5-.1-.5-.1-1-.2-1.4-.7-3.6-2.7-6.4-5.3-7.4-.4-.2-1-.3-1.7-.3h-.9-.1c-.3 0-.6.1-.9.1-.3.1-.7.1-1 .2h-.1c-1.8.5-3.8 1.3-5.9 2.5-3.4 1.9-6.8 4.6-9.6 7.9-1.2 1.5-2.9 3.8-3.8 6.5-.1.2-.1.4-.2.6v.1c-.1.2-.1.4-.2.6v.1c-.1.3-.1.7-.2 1v1.3c-.1.2-.1.3-.1.4zm-2.7 22.7c-.2 1.8-.4 3.7-.5 5.6h183.2c0-13.8 2.1-24.9 6.1-36.7-14.4-3.9-60.6-15.1-114.3-16.8-10.8 10.8-22.5 11.4-31.9 11.9-.4 0-.9 0-1.3.1.9 8-2.1 16.3-8.4 22.5-5.9 5.9-13.4 9.3-20.5 9.3-3.2 0-6.1-.7-8.6-2-1.7 2.4-2.9 4.4-3.8 6.1zm55.6 132.5c0-.1 0-.1 0 0-.5-2.4-1.2-4.6-2-6.3-7-16-29.2-57.9-40.4-66.5-5.6-4.3-11.7-6.6-17.6-6.6-6.1 0-11.5 2.5-15.2 7-4.3 5.3-5.7 12.7-4 20.9 4.3 21 41.6 61.6 66.9 67.7 1.9.5 3.7.7 5.2.7 3.9 0 5.4-1.5 6.2-2.7 2.2-3.2 2-9.1.9-14.2zm94.8-17c-12.2 3-25.3 5.2-38.6 5.8 11.2 2.5 23.3 4.1 36.4 4.1 1.4 0 2.8 0 4.2-.1v-.1c-.6-3-1.3-6.3-2-9.7zm-2.3-9.7c-2.9-12.1-5.6-24.8-3.7-36-23.1 3.9-52 7.3-82.6 7.3-10.1 0-18.8-1.1-26.4-2.8 3.1 4.9 6.2 10.2 9.2 15.4 2.8 2.1 5.9 4.3 9.1 6.5 4.4 2.9 9.4 6 15 9 11.2 3.9 23.1 6.5 35.3 6.5 15.1 0 30.1-2.4 44.1-5.9zm4.7 40.9c.1-3.8.3-7.7.2-11.4-1.6 0-3.2.1-4.9.1-40 0-72-13.7-93.5-26.9 3.1 6.2 5.6 11.3 6.8 14.2.3.6.6 1.4.9 2.4 24.2 22.3 55.6 36.9 90.4 39.5-.3-5.7-.1-11.8.1-17.9zm5.8-98.9c4-2.7 8.4-4 13-4 6.1 0 12 2.4 17.5 6.2-3.5-10.4-5.6-21.9-6.3-34.5H65.4c2.2 3.3 4.5 7.2 1.2 10.6-.8.9-1.8 1.4-2.8 1.6 1.5 7.2 3.7 13.6 6.2 19 3.9 1.4 7.6 3.5 11.2 6.3 2.3 1.8 4.9 4.6 7.7 8.1 8.9 3.6 20.5 6.1 35.6 6.1 32.4 0 62.8-3.9 86.2-8 2.4-4.3 5.8-8.1 10.7-11.4zM207.5 299c0 .1 0 .2-.1.4 0-.1.1-.2.1-.4zm1-3.9zm.5-1.3zm65 37.5c-4.2-15.2-24.3-45.4-39.6-45.4-2.4 0-4.6.7-6.7 2.1-13.4 8.9-10.7 25.1-5 48.8 1.4 5.9 2.8 11.9 3.7 17.6 1.1 7.3.9 15.6.6 23.5-.4 12.3-.8 25.1 4.5 30.6 2.3 2.4 6 3.6 11.1 3.6 26 0 31.1-27.3 31.3-28.4 0-.2.1-.5.2-.7 5-16.1 6.5-29.1-.1-51.7zm8.3-21.2c12.2-16.9 30.7-27.5 52.4-29.7 7.7-.8 15.4-.4 22.5.9 4.7-12.6 7.3-27.2 7.3-42.4 0-17.9-4.1-36.8-12.6-52-15.8-13.2-29.3-21.6-46.9-25.3-2.9-.6-5.9-.9-9-1.1-4.7 2-9.4 5-13.8 9-8.1 7.2-26.8 28.3-26.8 68.9 0 26.5 6.8 48.7 19.5 64.1 2.3 2.8 4.8 5.3 7.4 7.6zm90.5-49.1l.3-2.7-.3 2.7zm-5.8 22.8c.5.2 1 .3 1.4.5 2.1-7.6 3.6-15.4 4.4-23.4-1.3 8.1-3.2 15.7-5.8 22.9zm-7.3-2c.1 0 .1 0 0 0 .1 0 .1 0 0 0zm4.1 99.4c-8.5 5.1-16.9 9.1-24.9 12.3-26.3 48.1-83.4 85-132.9 85.9-25.6.4-45.4-9.2-56.2-27.3-12.1-20.3-30.5-27.8-42.5-24.7-8 2.1-12.7 8.8-13 18.9-.3 8.9 7.5 20.7 21 31.7 24.1 19.7 65.5 35.5 103.5 26.5 65.8-15.7 124.9-66.5 145-123.3zm26.8-301.6c-10.2-5-21.6-12.3-34.3-23l-1-.9c-14-11.6-12-16.9-11.4-18.7.5-1.4 1.4-2.5 2.6-3.3-18.9-12.1-40.7-18.9-64.4-19.6-59-1.8-110.7 23.3-138.3 67.1-6.2 9.9-9.1 19-8.4 26.7.8-.5 1.3-.8 1.4-.9l3.1-1.9 2.8 2.4c.3.2 6.9 5.9 14 12.8.7.7 1.4 1.3 2 2 12.5-4.1 29.9-13.4 36.6-25.5.6-1 1.5-1.8 2.6-2.1 1.1-.3 2.3-.1 3.3.5 23.3 14.3 49.5 7.8 72.2.5 2.2-.7 4.6.5 5.4 2.8.4 1.2.2 2.4-.4 3.5 15-.4 30.1 1.9 43.4 7.1 2.2.9 3.3 3.3 2.4 5.5-.9 2.2-3.3 3.3-5.5 2.4-32.7-12.9-76.9-6.6-100.7 14.4-8.2 7.2-11.7 14.1-10 19.5 1.8 5.6 9 9.9 18 10.9 6.8.7 17.1-1.6 28-4 16.8-3.7 35.9-8 52.9-4.5 27.5 5.7 45.8 22.2 73.4 47.2l3.4 3c1.7 1.6 1.9 4.3.3 6-.8.9-2 1.4-3.2 1.4-1 0-1.9-.4-2.7-1 2.7 11.6 4.1 23.5 4.1 35.5 0 14.4-2 28.7-5.9 42.5 4.4 2.5 8.1 5.5 10.7 8.9 1.4 1.9 1.1 4.5-.8 6-1.9 1.4-4.5 1.1-6-.8-7.4-9.5-26.1-15.1-44.6-13.2-13.5 1.4-38.1 7.8-52 35.5.5 1.4 1 2.7 1.3 3.9 7.3 25 5.6 40.2.1 57.8-.5 3-1.6 6.5-3.2 10.2 18.7.1 51.8-4.1 87.1-28.3 66.7-45.9 60.8-190.2 39.1-251.5-4.8-13.5-10.6-25.8-17.4-36.8zm91.3-37.4c-2.8-.3-10.2-.4-21.9-.4-6.2 0-13.4 0-20.9.1-8.6 0-17.8.1-27 .1-17 0-41.3-.1-56.3-1.4-1.3-.1-2.5-.1-3.2 0 1.1 1.8 3.8 5 8.2 8.6l1.1.9c29.6 25.2 51.9 30.5 65.4 30.5 4.8 0 9.5-.7 13.9-2 20.8-6.2 33.6-19.1 38.6-29.1 1.7-3.7 2.1-6.1 2.1-7.3z"/><path class="st9" d="M138.6 117.7l.4-.3c4.1 3.6 5.6 5.1 7.7 7-.4-.1-.7-.1-1-.2-2.1-.9-5-3.1-7.1-6.5z"/><path class="st10" d="M372.8 261c-.8 7.9-2.3 15.7-4.4 23.4-.5-.2-1-.3-1.4-.5 2.6-7.3 4.5-14.9 5.8-22.9zm-97.3 75.8c0-.2-.1-.4-.1-.5-.4-1.6-.9-3.3-1.4-5-4.2-15.2-24.3-45.4-39.6-45.4-2.4 0-4.6.7-6.7 2.1-13.4 8.9-10.7 25.1-5 48.8 1.4 5.9 2.8 11.9 3.7 17.6 1.1 7.3.9 15.6.6 23.5-.4 12.3-.8 25.1 4.5 30.6 2.3 2.4 6 3.6 11.1 3.6 1.5 0 2.9-.1 4.2-.3.4-.1.8-.1 1.2-.2.9-.2 1.9-.3 2.7-.6l1.2-.3c.9-.3 1.8-.6 2.6-1 .2-.1.5-.2.7-.3 1.1-.5 2.1-1 3.1-1.6.1-.1.2-.1.3-.2.9-.5 1.7-1.1 2.4-1.7.2-.2.4-.4.7-.5.6-.5 1.2-1.1 1.8-1.6l.6-.6 1.8-2.1c.1-.1.1-.2.2-.2.6-.8 1.2-1.6 1.7-2.4.1-.2.2-.4.4-.6.4-.6.7-1.2 1.1-1.8.2-.3.3-.6.5-.9.3-.5.5-1 .7-1.5.1-.3.3-.6.4-.9.2-.4.4-.8.5-1.2.4-.9.7-1.7.9-2.4v-.1c.2-.5.4-1.1.5-1.5.6-2.1.9-3.6 1-3.8 0-.2.1-.5.2-.7 4.3-13.5 6-24.8 2.5-41.5-.3-1.7-.6-3.2-1-4.8M43.4 290.9c3.7-4.5 9.1-7 15.2-7 5.8 0 11.9 2.3 17.6 6.6 11.2 8.6 33.4 50.5 40.4 66.5 2.4 5.6 4.2 15.8 1.1 20.5-.8 1.2-2.2 2.7-6.2 2.7-1.5 0-3.3-.2-5.2-.7-25.3-6.1-62.5-46.7-66.9-67.7-1.8-8.2-.3-15.6 4-20.9m22.3-81.1c-.9-4.9 2.3-9.7 4.4-12.2 5.5-6.7 13.9-10.8 18.5-10.8.7 0 1.2.1 1.7.3 2.6 1 4.5 3.8 5.3 7.4 1.2 5.8-1 12.1-5.7 16.9-4.3 4.3-9.7 6.8-14.5 6.8-3.8 0-8.4-1.5-9.7-8.4m149.9 167.7c-.2 6.1-.4 12.2 0 17.9-34.8-2.7-66.3-17.2-90.4-39.5-.3-.9-.6-1.7-.9-2.4-1.3-2.9-3.7-8-6.8-14.2 21.5 13.1 53.5 26.9 93.5 26.9 1.6 0 3.3 0 4.9-.1-.1 3.7-.2 7.6-.3 11.4zM189 115.9c4.4-3.4 8.4-7.3 11.3-11.4 10.4 5.5 21.2 7.6 32.2 7.6-2.1.9-4.1 1.9-6 3-5.1-.4-10.3-.7-15.6-.7-7.6.1-14.9.6-21.9 1.5zm219 .4c-4.8-13.5-10.6-25.7-17.4-36.7-10.2-5-21.6-12.3-34.3-23l-1-.9c-14-11.6-12-16.9-11.4-18.7.5-1.4 1.4-2.5 2.6-3.3-18.9-12.1-40.7-18.9-64.4-19.6-59-1.8-110.7 23.3-138.3 67.1-6.2 9.9-9.1 19-8.4 26.7.8-.5 1.3-.8 1.4-.9l3.1-1.9 2.8 2.4c.3.2 6.9 5.9 14 12.8.7.7 1.4 1.3 2 2 12.5-4.1 29.9-13.4 36.6-25.5.6-1 1.5-1.8 2.6-2.1 1.1-.3 2.3-.1 3.3.5 23.3 14.3 49.5 7.8 72.2.5 2.2-.7 4.6.5 5.4 2.8.4 1.2.2 2.4-.4 3.5 15-.4 30.1 1.9 43.4 7.1 2.2.9 3.3 3.3 2.4 5.5-.9 2.2-3.3 3.3-5.5 2.4-32.7-12.9-76.9-6.6-100.7 14.4-8.2 7.2-11.7 14.1-10 19.5 1.8 5.6 9 9.9 18 10.9 6.8.7 17.1-1.6 28-4 16.8-3.7 35.9-8 52.9-4.5 27.5 5.7 45.8 22.2 73.4 47.2l3.4 3c1.7 1.6 1.9 4.3.3 6-.8.9-2 1.4-3.2 1.4-1 0-1.9-.4-2.7-1 2.7 11.6 4.1 23.5 4.1 35.5 0 14.4-2 28.7-5.9 42.5 4.4 2.5 8.1 5.5 10.7 8.9 1.4 1.9 1.1 4.5-.8 6-1.9 1.4-4.5 1.1-6-.8-7.4-9.5-26.1-15.1-44.6-13.2-13.5 1.4-38.1 7.8-52 35.5.5 1.4 1 2.7 1.3 3.9 7.3 25 5.6 40.2.1 57.8-.5 3-1.6 6.5-3.2 10.2 18.7.1 51.8-4.1 87.1-28.3 66.6-46 60.8-190.3 39.1-251.6zM163 86.5c-4.7 0-8.5-3.8-8.5-8.5s3.8-8.5 8.5-8.5 8.5 3.8 8.5 8.5-3.8 8.5-8.5 8.5zm46.4-3.8c-7 5.2-7.6 4.7-15.2 3.8-7.6-.9-9.6-7.2-2.8-12.3 3.8-2.8 9.5-4.7 18-5.7 8.5-.9 7.5 8.5 0 14.2zm52-19.9c-4.7 0-8.5-3.8-8.5-8.5s3.8-8.5 8.5-8.5 8.5 3.8 8.5 8.5c.1 4.7-3.8 8.5-8.5 8.5zm36 27.3c-9.1 0-16.5-7.4-16.5-16.5s7.4-16.5 16.5-16.5 16.5 7.4 16.5 16.5-7.4 16.5-16.5 16.5z"/></svg>